<svg width="24" height="24" viewBox="0 0 24 24" fill="none" xmlns="http://www.w3.org/2000/svg">
<path d="M10 20H14C14 21.1 13.1 22 12 22C10.9 22 10 21.1 10 20ZM20 17.35V19H4V17.35L6 15.47V10.32C6 7.40004 7.56 5.10004 10 4.34004V3.96004C10 2.54004 11.49 1.46004 12.99 2.20004C13.64 2.52004 14 3.23004 14 3.96004V4.35004C16.44 5.10004 18 7.41004 18 10.33V15.48L20 17.35ZM19 17.77L17 15.89V10.42C17 7.95004 15.81 6.06004 13.87 5.32004C12.61 4.79004 11.23 4.82004 10.03 5.35004C8.15 6.11004 7 7.99004 7 10.42V15.89L5 17.77V18H19V17.77Z" fill="white"/>
</svg>
