<svg width="24" height="24" viewBox="0 0 24 24" fill="none" xmlns="http://www.w3.org/2000/svg">
<path d="M8 7C8 7.55 7.55 8 7 8C6.45 8 6 7.55 6 7C6 6.45 6.45 6 7 6C7.55 6 8 6.45 8 7ZM7 16C6.45 16 6 16.45 6 17C6 17.55 6.45 18 7 18C7.55 18 8 17.55 8 17C8 16.45 7.55 16 7 16ZM10.79 8.23L21 18.44V20H17.73L11.97 14.24L10.7 15.51C10.89 15.97 11 16.47 11 17C11 19.21 9.21 21 7 21C4.79 21 3 19.21 3 17C3 14.79 4.79 13 7 13C7.42 13 7.81 13.08 8.19 13.2L9.56 11.83L8.45 10.72C8 10.89 7.51 11 7 11C4.79 11 3 9.21 3 7C3 4.79 4.79 3 7 3C9.21 3 11 4.79 11 7C11 7.43 10.91 7.84 10.79 8.23ZM10.08 8.94L9.65 8.5L9.84 7.92C9.95 7.58 10 7.28 10 7C10 5.35 8.65 4 7 4C5.35 4 4 5.35 4 7C4 8.65 5.35 10 7 10C7.36 10 7.73 9.93 8.09 9.79L8.7 9.55L9.16 10.01L10.27 11.12L10.98 11.83L10.27 12.54L8.9 13.91L8.47 14.34L7.89 14.16C7.55 14.05 7.27 14 7 14C5.35 14 4 15.35 4 17C4 18.65 5.35 20 7 20C8.65 20 10 18.65 10 17C10 16.62 9.93 16.25 9.78 15.88L9.53 15.27L10 14.8L11.27 13.53L11.98 12.82L12.69 13.53L18.15 19H20V18.85L10.08 8.94ZM17.73 4H21V5.56L15.48 11.08L13.07 8.67L17.73 4ZM18.15 5L14.48 8.67L15.48 9.67L20 5.15V5H18.15Z" fill="white"/>
</svg>
