<svg width="16" height="16" viewBox="0 0 16 16" fill="none" xmlns="http://www.w3.org/2000/svg">
<path d="M11.3334 2.66669H10.6667H4.38003C3.66669 2.66669 3.06003 3.11335 2.92003 3.74002L2.02669 7.74002C1.84669 8.56669 2.54669 9.33335 3.48669 9.33335H6.30669L5.29336 12.6267C5.08003 13.3134 5.64003 14 6.41336 14C6.80002 14 7.17336 13.84 7.42669 13.5667L11.3334 9.33335H14V2.66669H11.3334ZM6.93336 13.1134C6.80669 13.2534 6.61336 13.3334 6.41336 13.3334C6.24003 13.3334 6.08003 13.26 5.99336 13.1334C5.94669 13.0667 5.89336 12.96 5.93336 12.82L6.94669 9.52669L7.21336 8.66669H6.30669H3.48669C3.21336 8.66669 2.95336 8.55335 2.80002 8.36002C2.72002 8.26002 2.63336 8.09335 2.68002 7.88002L3.57336 3.88002C3.64003 3.56669 3.98003 3.33335 4.38003 3.33335H10.6667V9.07335L6.93336 13.1134ZM13.3334 8.66669H11.3334V3.33335H13.3334V8.66669Z" fill="white"/>
</svg>
