<svg width="16" height="16" viewBox="0 0 16 16" fill="none" xmlns="http://www.w3.org/2000/svg">
<path d="M12.5133 7.33335H9.69333L10.7067 4.04002C10.92 3.35335 10.36 2.66669 9.58667 2.66669C9.2 2.66669 8.82667 2.82669 8.57333 3.10002L4.66667 7.33335H2V14H4.66667H5.33333H11.62C12.3267 14 12.94 13.5534 13.08 12.9267L13.9733 8.92669C14.1533 8.10002 13.4533 7.33335 12.5133 7.33335ZM4.66667 13.3334H2.66667V8.00002H4.66667V13.3334ZM13.32 8.78002L12.4267 12.78C12.36 13.1 12.02 13.3334 11.62 13.3334H5.33333V7.59335L9.06667 3.55335C9.19333 3.41335 9.38667 3.33335 9.58667 3.33335C9.76 3.33335 9.92 3.40669 10.0067 3.53335C10.0533 3.60002 10.1067 3.70669 10.0667 3.84669L9.05333 7.14002L8.78667 8.00002H9.68667H12.5067C12.78 8.00002 13.04 8.11335 13.1933 8.30669C13.28 8.40669 13.3667 8.57335 13.32 8.78002Z" fill="white"/>
</svg>
